<svg width="500" height="88" viewBox="0 0 500 88" fill="none" xmlns="http://www.w3.org/2000/svg">
<rect y="0.190918" width="43.4741" height="87.6978" rx="2.14158" fill="#02FF71"/>
<path d="M75.7703 9.85257C72.5328 7.23375 74.3846 2 78.5487 2H201.75C202.761 2 203.742 2.347 204.528 2.98303L299.923 80.1474C303.161 82.7663 301.309 88 297.145 88H173.944C172.932 88 171.952 87.653 171.165 87.017L75.7703 9.85257Z" fill="#02FF71"/>
<path d="M256.685 5.35682C254.476 3.57033 255.74 0 258.58 0H389.438C390.128 0 390.797 0.23671 391.334 0.670593L492.673 82.6432C494.882 84.4297 493.618 88 490.778 88H359.92C359.23 88 358.561 87.7633 358.024 87.3294L256.685 5.35682Z" fill="#02FF71"/>
</svg>
